# xmcd CD database file
#
# Track frame offsets:
#	150
#	27283
#	60402
#	94598
#	123516
#	142460
#	171709
#
# Disc length: 2601 seconds
#
# Revision: 2
# Processed by: cddbd v1.5.1PL2 Copyright (c) Steve Scherf et al.
# Submitted via: CDex 1.51
#
DISCID=660a2707
DTITLE=Juan Miguel Vazquez Trio - Amazonia(www.youkalimusic.com)
DYEAR=2005
DGENRE=Jazz
TTITLE0=Vals de Miguel
TTITLE1=Amazonia
TTITLE2=Cielito Lindo
TTITLE3=Bolero de Raquel
TTITLE4=Chapoteando
TTITLE5=Angelina
TTITLE6=Churreria
EXTD=YEAR: 2005
EXTT0=
EXTT1=
EXTT2=
EXTT3=
EXTT4=
EXTT5=
EXTT6=
PLAYORDER=
